<svg xmlns="http://www.w3.org/2000/svg" width="480" height="176" viewBox="0 0 480 176">
  <rect width="480" height="176" fill="#E8EBF5"/>
  <!-- outfit card mock -->
  <rect x="40" y="28" width="100" height="120" rx="10" fill="#B4BEDC" opacity="0.45"/>
  <rect x="52" y="40" width="76" height="60" rx="6" fill="#9AA8CC" opacity="0.4"/>
  <rect x="52" y="108" width="50" height="8" rx="3" fill="#8090B8" opacity="0.4"/>
  <rect x="52" y="122" width="36" height="8" rx="3" fill="#8090B8" opacity="0.3"/>
  <!-- second card -->
  <rect x="160" y="40" width="88" height="108" rx="10" fill="#B4BEDC" opacity="0.35"/>
  <rect x="170" y="50" width="68" height="52" rx="6" fill="#9AA8CC" opacity="0.35"/>
  <!-- heart / save icon -->
  <path d="M340 70 C340 60 330 55 324 63 C318 55 308 60 308 70 C308 82 324 94 324 94 C324 94 340 82 340 70Z" fill="#7080B4" opacity="0.45"/>
  <!-- share arrow -->
  <path d="M370 80 L390 68 L390 76 L406 76 L406 84 L390 84 L390 92 Z" fill="#7080B4" opacity="0.4"/>
  <circle cx="430" cy="50" r="32" fill="#B4BEDC" opacity="0.25"/>
</svg>
